<?xml version="1.0" encoding="UTF-8" standalone="no"?>
<svg
   xmlns:dc="http://purl.org/dc/elements/1.1/"
   xmlns:cc="http://creativecommons.org/ns#"
   xmlns:rdf="http://www.w3.org/1999/02/22-rdf-syntax-ns#"
   xmlns:svg="http://www.w3.org/2000/svg"
   xmlns="http://www.w3.org/2000/svg"
   xmlns:sodipodi="http://sodipodi.sourceforge.net/DTD/sodipodi-0.dtd"
   xmlns:inkscape="http://www.inkscape.org/namespaces/inkscape"
   height="137.41003"
   width="136.73126"
   inkscape:version="1.0 (4035a4fb49, 2020-05-01)"
   sodipodi:docname="bharatiab.svg"
   version="1.1"
   viewBox="0 0 136.73126 137.41004"
   data-name="Layer 1"
   id="Layer_1">
  <metadata
     id="metadata43">
    <rdf:RDF>
      <cc:Work
         rdf:about="">
        <dc:format>image/svg+xml</dc:format>
        <dc:type
           rdf:resource="http://purl.org/dc/dcmitype/StillImage" />
        <dc:title></dc:title>
      </cc:Work>
    </rdf:RDF>
  </metadata>
  <sodipodi:namedview
     inkscape:current-layer="Layer_1"
     inkscape:window-maximized="1"
     inkscape:window-y="-8"
     inkscape:window-x="-8"
     inkscape:cy="-78.295976"
     inkscape:cx="-261.65696"
     inkscape:zoom="1.008214"
     inkscape:lockguides="false"
     inkscape:snap-to-guides="false"
     inkscape:snap-grids="true"
     showgrid="true"
     id="namedview41"
     inkscape:window-height="1027"
     inkscape:window-width="1920"
     inkscape:pageshadow="2"
     inkscape:pageopacity="0"
     guidetolerance="10"
     gridtolerance="10"
     objecttolerance="10"
     borderopacity="1"
     bordercolor="#666666"
     pagecolor="#ffffff">
    <sodipodi:guide
       inkscape:locked="false"
       id="guide45"
       orientation="0,506.63"
       position="-169.86,197.98001" />
    <sodipodi:guide
       inkscape:locked="false"
       id="guide47"
       orientation="248.95,0"
       position="336.77001,197.98001" />
    <sodipodi:guide
       inkscape:locked="false"
       id="guide49"
       orientation="0,-506.63"
       position="336.77001,-50.969993" />
    <sodipodi:guide
       inkscape:locked="false"
       id="guide51"
       orientation="-248.95,0"
       position="-169.86,-50.969993" />
    <inkscape:grid
       originy="-60.569973"
       originx="-169.86"
       id="grid3967"
       type="xygrid" />
  </sodipodi:namedview>
  <defs
     id="defs4">
    <style
       id="style2">.cls-1{fill:#ea4e2f;}.cls-2,.cls-4{fill:#1b1c20;}.cls-3,.cls-5{fill:none;}.cls-4{font-size:120.18px;font-family:ProximaNova-Bold, Proxima Nova;font-weight:700;}.cls-5{stroke:#1b1c20;stroke-miterlimit:10;}.cls-6{fill:#fff;}</style>
  </defs>
  <path
     id="path6"
     d="m 98.150002,79.120029 c 11.419988,3.58 15.619988,20.000001 6.589988,28.250001 -6.359988,9.27 -49.259987,3.46 -58.599987,5 v -26.18 l -27.24,13.22 v 38 h 81.319987 a 36.5,-36.5 0 0 0 17.18,-68.710001 v 0 c -7.54,-3.73 -36.219988,-17.32 -44.32999,-21.21 -19.659997,7.26 -53.769997,22.84 -73.0699970601554,30.83 V 101.39003 C 21.920003,91.68003 50.490003,79.610029 72.5,70.150029 Z"
     class="cls-1" />
  <path
     id="path8"
     d="M 120.13999,9.4300206 A 32.1,-32.1 0 0 0 97.37,3.058411e-5 H 18.9 V 65.660028 L 46.13,52.660026 V 22.410031 h 37.4 c 19.21999,0.28 20.99999,25.839995 7.35,27.999995 5.32,2.28 16.60999,7.54 21.89999,10.070002 18.33,-8.910002 22.53,-37.170007 7.36,-51.0500074 z"
     class="cls-2" />
  <rect
     id="rect10"
     height="5.7199998"
     width="5.7199998"
     y="85.000038"
     x="66.260017"
     class="cls-2" />
  <rect
     id="rect12"
     height="5.7199998"
     width="5.7199998"
     y="85.000038"
     x="74.150017"
     class="cls-2" />
  <rect
     id="rect14"
     height="5.7199998"
     width="5.7199998"
     y="93.32003"
     x="74.150017"
     class="cls-2" />
  <rect
     id="rect16"
     height="5.7199998"
     width="5.7199998"
     y="93.32003"
     x="66.260017"
     class="cls-2" />
  <line
     id="line18"
     y2="70.150032"
     x2="72.510017"
     y1="79.110023"
     x1="98.149986"
     class="cls-3" />
</svg>
