<svg id="Layer_1" data-name="Layer 1" xmlns="http://www.w3.org/2000/svg" viewBox="0 0 506.63 248.95"><defs><style>.cls-1{fill:#ea4e2f;}.cls-2,.cls-4{fill:#1b1c20;}.cls-3,.cls-5{fill:none;}.cls-4{font-size:120.18px;font-family:ProximaNova-Bold, Proxima Nova;font-weight:700;}.cls-5{stroke:#1b1c20;stroke-miterlimit:10;}.cls-6{fill:#fff;}</style></defs><path class="cls-1" d="M354.39,520.29c11.42,3.58,15.62,20,6.59,28.25-6.36,9.27-49.26,3.46-58.6,5V527.36l-27.24,13.22v38h81.32a36.5,36.5,0,0,0,17.18-68.71h0c-7.54-3.73-36.22-17.32-44.33-21.21-19.66,7.26-53.77,22.84-73.07,30.83v23.07c21.92-9.71,50.49-21.78,72.5-31.24Z" transform="translate(-256.25 -353.85)"/><path class="cls-2" d="M376.38,450.6a32.1,32.1,0,0,0-22.77-9.43H275.14v65.66l27.23-13V463.58h37.4c19.22.28,21,25.84,7.35,28,5.32,2.28,16.61,7.54,21.9,10.07C387.35,492.74,391.55,464.48,376.38,450.6Z" transform="translate(-256.25 -353.85)"/><rect class="cls-2" x="66.25" y="172.32" width="5.72" height="5.72"/><rect class="cls-2" x="74.14" y="172.32" width="5.72" height="5.72"/><rect class="cls-2" x="74.14" y="180.64" width="5.72" height="5.72"/><rect class="cls-2" x="66.25" y="180.64" width="5.72" height="5.72"/><line class="cls-3" x1="98.14" y1="166.43" x2="72.5" y2="157.47"/><text class="cls-4" transform="translate(136.72 214.34)">hara ia</text><path class="cls-2" d="M644.49,556.6" transform="translate(-256.25 -353.85)"/><path class="cls-5" d="M680.85,389.36" transform="translate(-256.25 -353.85)"/><path class="cls-2" d="M656.82,562.61s-.28,16.71,13.53,26c-.67-.23-18.13-6.65-18.13-26V481.37h-.71l-.57,81.24a37.23,37.23,0,0,0,11.74,25.1l-.26-.09v-.14c-11.73-6.58-14.55-16.75-15.07-19.19-.06-.21-.08-.36-.1-.45s0-.06,0-.08h0a47,47,0,0,1-.59-5.14h0V481.37h-.79l-.58,83.49s.26,11.86,8.87,18.78c-.35.09-5.77-2.2-9.78-8.88a36.16,36.16,0,0,1-4.2-15.72V481.37L605,480.86V467.14l39.94.52.3-.29v.29H650l1.63-1.42v1.42h.61v-.29l4.6-2.25v2.54h37v13.71h-37Z" transform="translate(-256.25 -353.85)"/><path class="cls-2" d="M667.05,384.94a14.94,14.94,0,0,1-6.58,11.1,6.3,6.3,0,0,1-2.14-3.65,11.66,11.66,0,0,0,4.18-7.09A7.8,7.8,0,0,1,667.05,384.94Z" transform="translate(-256.25 -353.85)"/><path class="cls-2" d="M680.94,388.63c.13-7-7.67-12.18-14.86-10a15.24,15.24,0,0,0-3.68-5.38c6.06-5.4,3.58-10.45.18-12.7-2.57-2.39-21.17-2-26.53-2.14s-1.64-4.53-1.64-4.53c-9.09,6-6.12,17.07,4.84,18.65-15.44,13,4.29,35,21.22,23.54a6.3,6.3,0,0,1-2.14-3.65,11.66,11.66,0,0,0,4.18-7.09,7.8,7.8,0,0,1,4.54-.36,14.94,14.94,0,0,1-6.58,11.1c4.72,4.34,13.31.06,11.9-5.92h8.46A10.45,10.45,0,0,0,680.94,388.63Z" transform="translate(-256.25 -353.85)"/><path class="cls-6" d="M662.58,383.85c-.28,14.92-24.5,14.92-24.78,0C638.08,368.93,662.3,368.93,662.58,383.85Z" transform="translate(-256.25 -353.85)"/><path class="cls-2" d="M617.89,455.35l8.37-44.85C634.53,380.61,680.18,403,658,426l-35.62,31.56C620.5,459.16,617.46,457.68,617.89,455.35Z" transform="translate(-256.25 -353.85)"/><path class="cls-2" d="M656,381.19c.06,3.45-5.85,3.45-5.8,0S656.05,377.75,656,381.19Z" transform="translate(-256.25 -353.85)"/><path class="cls-1" d="M664.88,407.06s9.22,9.11-5,24.82-23.52,23.42-23.52,23.42,4.44,4.54,6.09,3.43c-2.88,16-1.15,10.78,18.55,12.95a3.21,3.21,0,0,0,2.85-4.85L657,455.21S688.37,435.75,664.88,407.06Z" transform="translate(-256.25 -353.85)"/></svg>